#!OML:ASF X:\für Bonn\!DataBase\2005_08_10_Bjorn_Final\c3d\bjorn.ASF
:FULLY-SPECIFIED
:DEGREES
121
root 0.417423 11.5816 3.47293 -177.851 -0.72696 -182.154
lowerback 21.054 1.57039 5.2403
upperback 11.2943 0.568973 0.42681
thorax 0.669682 -0.492137 -2.63306
lowerneck -25.9345 -0.0618814 3.19556
upperneck 4.32975 -1.08096 -6.07654
head 5.31025 -1.24538 -2.63248
rclavicle -1.66979e-014 -2.38542e-015
rhumerus 80.1787 3.1079 -79.1644
rradius 4.30197
rwrist 52.9373
rhand -20.6307 9.89122
rfingers 7.12502
rthumb 5.73093 -20.0113
lclavicle -1.66979e-014 -2.38542e-015
lhumerus 78.1278 -9.95666 85.6768
lradius 4.31632
lwrist -67.0876
lhand -25.4939 -5.00337
lfingers 7.12502
lthumb 1.03456 24.9739
rfemur -73.9233 -27.5677 10.3205
rtibia 128.421
rfoot -34.1877 24.5784
rtoes -37.7734
lfemur -74.1915 12.0347 -21.2707
ltibia 130.139
lfoot -28.6357 -5.44266
ltoes -36.6901
122
root 0.417111 11.797 3.45944 -177.533 -0.739669 -182.178
lowerback 20.6448 1.55913 5.20664
upperback 11.179 0.59336 0.418623
thorax 0.745074 -0.454883 -2.62508
lowerneck -25.8821 -0.0645586 3.2661
upperneck 4.51412 -1.0699 -6.13915
head 5.36254 -1.23539 -2.66383
rclavicle -1.59028e-015 -6.36111e-015
rhumerus 80.3832 3.10544 -79.0613
rradius 4.33321
rwrist 52.948
rhand -20.1568 9.83676
rfingers 7.12502
rthumb 6.18843 -20.0529
lclavicle -1.59028e-015 -6.36111e-015
lhumerus 78.2988 -9.93378 85.6358
lradius 4.25524
lwrist -67.1241
lhand -25.4017 -5.00021
lfingers 7.12502
lthumb 1.12361 24.9766
rfemur -72.9195 -25.5742 10.649
rtibia 126.705
rfoot -34.1193 23.0043
rtoes -37.9148
lfemur -73.2665 10.9279 -21.3566
ltibia 128.427
lfoot -28.4114 -4.75238
ltoes -36.6139
123
root 0.417188 12.0193 3.44449 -177.224 -0.724642 -182.181
lowerback 20.2239 1.56414 5.19753
upperback 11.0755 0.638652 0.403738
thorax 0.843345 -0.406525 -2.64177
lowerneck -25.8142 -0.0729425 3.36259
upperneck 4.66509 -1.07734 -6.20532
head 5.40078 -1.2345 -2.70198
rclavicle 2.38542e-015 3.65764e-014
rhumerus 80.605 3.08477 -78.9724
rradius 4.35636
rwrist 52.9952
rhand -19.724 9.75345
rfingers 7.12502
rthumb 6.60622 -20.1235
lclavicle 2.38542e-015 3.65764e-014
lhumerus 78.5123 -9.919 85.5745
lradius 4.15567
lwrist -67.1836
lhand -25.3425 -5.04187
lfingers 7.12502
lthumb 1.18077 24.9346
rfemur -71.876 -23.6647 10.989
rtibia 124.906
rfoot -34.0493 21.4639
rtoes -37.9314
lfemur -72.2873 9.99075 -21.4122
ltibia 126.641
lfoot -28.2079 -4.069
ltoes -36.5613
124
root 0.416786 12.2475 3.42867 -176.935 -0.727155 -182.204
lowerback 19.8124 1.55519 5.18971
upperback 10.9681 0.666259 0.376105
thorax 0.932662 -0.366877 -2.66904
lowerneck -25.7394 -0.0858899 3.42606
upperneck 4.85806 -1.07871 -6.22512
head 5.45186 -1.22561 -2.71933
rclavicle 1.51076e-014 -1.51076e-014
rhumerus 80.8328 3.06153 -78.8912
rradius 4.3421
rwrist 52.9663
rhand -19.2929 9.69576
rfingers 7.12502
rthumb 7.02244 -20.1677
lclavicle 1.51076e-014 -1.51076e-014
lhumerus 78.6937 -9.91126 85.5079
lradius 4.08925
lwrist -67.2632
lhand -25.2825 -4.99139
lfingers 7.12502
lthumb 1.23877 24.9848
rfemur -70.7671 -21.9525 11.2662
rtibia 123.028
rfoot -33.9611 20.0984
rtoes -37.8528
lfemur -71.2395 9.09204 -21.4877
ltibia 124.777
lfoot -27.9922 -3.4328
ltoes -36.4987
125
root 0.417316 12.4782 3.41224 -176.647 -0.721278 -182.227
lowerback 19.3848 1.55446 5.13949
upperback 10.863 0.695858 0.375112
thorax 1.03153 -0.32937 -2.64396
lowerneck -25.7019 -0.102584 3.45684
upperneck 5.08651 -1.07295 -6.26047
head 5.52042 -1.21639 -2.73689
rclavicle 5.1684e-015 4.53229e-014
rhumerus 81.0626 3.06821 -78.7807
rradius 4.30801
rwrist 53.0491
rhand -19.0052 9.63603
rfingers 7.12502
rthumb 7.30016 -20.218
lclavicle 5.1684e-015 4.53229e-014
lhumerus 78.8397 -9.87872 85.4745
lradius 4.0856
lwrist -67.2794
lhand -25.1599 -4.98915
lfingers 7.12502
lthumb 1.35713 24.9863
rfemur -69.6429 -20.3791 11.5262
rtibia 121.098
rfoot -33.8821 18.8418
rtoes -37.7157
lfemur -70.1849 8.30885 -21.5453
ltibia 122.873
lfoot -27.7479 -2.92691
ltoes -36.2894
126
root 0.417708 12.711 3.39518 -176.376 -0.735562 -182.249
lowerback 18.9417 1.54284 5.09001
upperback 10.7647 0.708639 0.373133
thorax 1.14536 -0.300495 -2.61711
lowerneck -25.6136 -0.0928335 3.54616
upperneck 5.27386 -1.04692 -6.34173
head 5.56923 -1.19946 -2.77526
rclavicle 1.59028e-015 -1.27222e-014
rhumerus 81.2397 3.10423 -78.6904
rradius 4.30334
rwrist 53.0608
rhand -18.7787 9.56332
rfingers 7.12502
rthumb 7.51876 -20.283
lclavicle 1.59028e-015 -1.27222e-014
lhumerus 78.9524 -9.8222 85.4308
lradius 4.12992
lwrist -67.2299
lhand -24.9801 -5.01709
lfingers 7.12502
lthumb 1.53083 24.9572
rfemur -68.5047 -19.0098 11.7819
rtibia 119.116
rfoot -33.8422 17.5695
rtoes -37.7825
lfemur -69.0935 7.59096 -21.6138
ltibia 120.909
lfoot -27.504 -2.31701
ltoes -36.31
127
root 0.419529 12.9466 3.376 -176.115 -0.768383 -182.289
lowerback 18.4561 1.53864 5.01429
upperback 10.6907 0.719784 0.377952
thorax 1.30733 -0.274167 -2.56772
lowerneck -25.5963 -0.115066 3.54453
upperneck 5.51647 -1.04227 -6.34513
head 5.64538 -1.18944 -2.77789
rclavicle -5.96354e-015 1.19271e-014
rhumerus 81.4059 3.1413 -78.5925
rradius 4.29946
rwrist 53.0839
rhand -18.6712 9.48604
rfingers 7.12502
rthumb 7.62248 -20.3566
lclavicle -5.96354e-015 1.19271e-014
lhumerus 79.0456 -9.80971 85.4064
lradius 4.25611
lwrist -67.1714
lhand -24.7577 -4.9495
lfingers 7.12502
lthumb 1.74554 25.0231
rfemur -67.3116 -17.8072 12.002
rtibia 117.077
rfoot -33.8278 16.3505
rtoes -37.9089
lfemur -67.9683 6.91692 -21.6931
ltibia 118.894
lfoot -27.2529 -1.76986
ltoes -36.3023
128
root 0.421237 13.189 3.35537 -175.855 -0.801887 -182.311
lowerback 17.9491 1.5329 4.9934
upperback 10.617 0.737544 0.347192
thorax 1.48544 -0.239866 -2.58762
lowerneck -25.5215 -0.12668 3.65319
upperneck 5.71371 -1.0554 -6.37636
head 5.697 -1.18629 -2.80776
rclavicle 0 1.19271e-014
rhumerus 81.5082 3.12605 -78.5535
rradius 4.31574
rwrist 53.0774
rhand -18.6862 9.40817
rfingers 7.12502
rthumb 7.60805 -20.435
lclavicle 0 1.19271e-014
lhumerus 79.1502 -9.82446 85.3225
lradius 4.36884
lwrist -66.9583
lhand -24.5199 -4.98384
lfingers 7.12502
lthumb 1.97525 24.9868
rfemur -66.0618 -16.7135 12.2276
rtibia 114.948
rfoot -33.7926 15.2272
rtoes -37.9746
lfemur -66.7821 6.31091 -21.7407
ltibia 116.789
lfoot -27.0005 -1.26082
ltoes -36.3271
129
root 0.423784 13.4313 3.33327 -175.603 -0.857373 -182.333
lowerback 17.4221 1.5158 4.92666
upperback 10.5387 0.733788 0.356975
thorax 1.66566 -0.219808 -2.53503
lowerneck -25.5103 -0.151208 3.6433
upperneck 6.04928 -1.0432 -6.35784
head 5.80467 -1.16863 -2.80222
rclavicle -1.51076e-014 8.74653e-015
rhumerus 81.6031 3.2018 -78.4799
rradius 4.3214
rwrist 53.1083
rhand -18.7292 9.29028
rfingers 7.12502
rthumb 7.56658 -20.5544
lclavicle -1.51076e-014 8.74653e-015
lhumerus 79.2388 -9.78156 85.2842
lradius 4.42281
lwrist -66.6475
lhand -24.2815 -4.96246
lfingers 7.12502
lthumb 2.20554 25.0059
rfemur -64.7726 -15.7541 12.4269
rtibia 112.764
rfoot -33.7484 14.2182
rtoes -38.0199
lfemur -65.5728 5.79515 -21.7941
ltibia 114.645
lfoot -26.7618 -0.814404
ltoes -36.2277
130
root 0.427203 13.6741 3.31031 -175.349 -0.910829 -182.373
lowerback 16.8758 1.50406 4.83315
upperback 10.4677 0.731333 0.365514
thorax 1.86431 -0.200466 -2.46881
lowerneck -25.5939 -0.181854 3.60688
upperneck 6.50489 -1.02716 -6.31542
head 5.96579 -1.14804 -2.7872
rclavicle 2.22639e-014 3.4191e-014
rhumerus 81.6943 3.2744 -78.4034
rradius 4.34565
rwrist 53.1122
rhand -18.7981 9.20587
rfingers 7.12502
rthumb 7.50006 -20.6412
lclavicle 2.22639e-014 3.4191e-014
lhumerus 79.3685 -9.75914 85.2493
lradius 4.40892
lwrist -66.3027
lhand -24.1255 -4.91874
lfingers 7.12502
lthumb 2.35618 25.048
rfemur -63.4713 -14.8918 12.5753
rtibia 110.532
rfoot -33.6461 13.4125
rtoes -37.8685
lfemur -64.3518 5.32786 -21.8669
ltibia 112.444
lfoot -26.5147 -0.356299
ltoes -36.198
131
root 0.430323 13.9156 3.28611 -175.119 -0.96594 -182.395
lowerback 16.3257 1.49652 4.81123
upperback 10.4051 0.742314 0.336093
thorax 2.08048 -0.169929 -2.48475
lowerneck -25.6629 -0.225542 3.62498
upperneck 6.95411 -1.04764 -6.25929
head 6.12084 -1.14158 -2.78032
rclavicle -1.11319e-014 -7.95139e-015
rhumerus 81.7032 3.29093 -78.387
rradius 4.45791
rwrist 53.0849
rhand -18.7729 9.08124
rfingers 7.12502
rthumb 7.52431 -20.7649
lclavicle -1.11319e-014 -7.95139e-015
lhumerus 79.4677 -9.79491 85.1647
lradius 4.45319
lwrist -65.8993
lhand -23.8771 -4.92844
lfingers 7.12502
lthumb 2.59608 25.0355
rfemur -62.1354 -14.1139 12.7063
rtibia 108.266
rfoot -33.5231 12.761
rtoes -37.6456
lfemur -63.0881 4.92975 -21.9072
ltibia 110.21
lfoot -26.2896 -0.0445882
ltoes -35.8859
132
root 0.434758 14.1529 3.2608 -174.877 -1.00869 -182.435
lowerback 15.7478 1.49081 4.71006
upperback 10.3413 0.744705 0.345217
thorax 2.30654 -0.148838 -2.41391
lowerneck -25.667 -0.267467 3.53744
upperneck 7.31097 -1.04376 -6.18119
head 6.23855 -1.12596 -2.74436
rclavicle -5.96354e-015 3.18055e-015
rhumerus 81.7072 3.36195 -78.3201
rradius 4.61219
rwrist 53.0409
rhand -18.6775 8.99422
rfingers 7.12502
rthumb 7.61642 -20.8486
lclavicle -5.96354e-015 3.18055e-015
lhumerus 79.518 -9.78667 85.1367
lradius 4.54689
lwrist -65.4205
lhand -23.6147 -4.92195
lfingers 7.12502
lthumb 2.84945 25.0388
rfemur -60.8234 -13.3965 12.801
rtibia 105.985
rfoot -33.3479 12.225
rtoes -37.3047
lfemur -61.8302 4.59194 -21.9744
ltibia 107.941
lfoot -26.0937 0.307533
ltoes -35.7802
